<svg width="24" height="24" viewBox="0 0 24 24" fill="none" xmlns="http://www.w3.org/2000/svg">
<g clip-path="url(#clip0_21263_8542)">
<path fill-rule="evenodd" clip-rule="evenodd" d="M0 12.0008V19.3069L3.94812 19.2882C8.10232 19.2694 8.17726 19.2648 9.04837 19.0446C9.50266 18.9276 10.238 18.5481 10.608 18.2391C11.3479 17.6162 11.8584 16.7544 12.0598 15.7897C12.1488 15.3728 12.1582 14.5204 12.0786 14.0756C11.8818 12.9327 11.2027 12.0663 10.1303 11.5793L9.88202 11.4668L10.2005 11.2795C10.6407 11.0125 11.1418 10.5021 11.3245 10.1227C11.7882 9.17198 11.7834 7.74822 11.3104 6.77407C10.7579 5.62663 9.5776 4.91943 7.92435 4.74146C7.61524 4.70867 6.12123 4.68994 3.72332 4.68994H0V12.0008ZM7.44664 7.3314C7.95713 7.43911 8.28029 7.61708 8.46294 7.88872C8.65965 8.1791 8.71117 8.37579 8.71117 8.81604C8.71117 9.50918 8.45358 9.94474 7.9103 10.193C7.39044 10.4271 7.10006 10.4506 4.93633 10.4506H2.95055V8.83009V7.20962L5.02531 7.23304C6.68793 7.25177 7.16563 7.2705 7.44664 7.3314ZM7.7136 12.9889C8.13511 13.1154 8.36928 13.2559 8.61281 13.5229C8.93128 13.8695 9.01558 14.1318 9.0109 14.7593C8.99685 15.9255 8.43485 16.5577 7.27335 16.7263C7.09539 16.7497 6.05567 16.7732 4.95506 16.7732H2.95055V14.8249V12.8812L5.21265 12.9C7.10475 12.914 7.51221 12.9281 7.7136 12.9889ZM15.3231 6.28355V7.1734H18.5079H21.6926V6.28355V5.3937H18.5079H15.3231V6.28355ZM13.4295 11.7657C14.0196 9.81268 15.6869 8.47322 17.8039 8.25778C18.3752 8.20159 18.6047 8.20159 19.1854 8.25311C20.9745 8.42171 22.1968 9.11017 23.0727 10.4309C23.6862 11.3582 23.925 12.2621 23.9719 13.8123L24 14.7163H20.0144H16.0241V14.9176C16.0241 15.194 16.1787 15.7794 16.3379 16.1025C16.8016 17.0532 18.1129 17.5825 19.3587 17.3202C19.9722 17.1891 20.4359 16.8846 20.731 16.4209L20.8949 16.1681H22.3655H23.8361L23.7939 16.3601C23.6628 16.9362 23.26 17.5919 22.6746 18.1819C21.8363 19.0344 20.8902 19.4605 19.4711 19.6385C18.1738 19.7978 16.7032 19.5214 15.64 18.9126C14.4036 18.21 13.7574 17.4045 13.3827 16.1025C13.0221 14.8614 13.0408 13.0537 13.4295 11.7657ZM20.7076 11.7376C20.4499 11.2036 19.8318 10.7587 19.1667 10.6136C18.5673 10.4871 17.7991 10.5714 17.3167 10.8149C17.0264 10.9601 16.6471 11.3442 16.455 11.6813C16.3286 11.9108 16.1787 12.3417 16.0991 12.7118L16.071 12.8429H18.5297H20.9886V12.7118C20.9886 12.501 20.8574 12.0466 20.7076 11.7376Z" fill="#F5F5F5"/>
</g>
<defs>
<clipPath id="clip0_21263_8542">
<rect width="24" height="24" fill="#F5F5F5"/>
</clipPath>
</defs>
</svg>
