<svg width="24" height="24" viewBox="0 0 24 24" fill="none" xmlns="http://www.w3.org/2000/svg">
<path d="M8.07663 7C10.8804 7 13.1531 9.28857 13.1531 12.1115C13.1531 14.9344 10.8802 17.2228 8.07663 17.2228C5.27305 17.2228 3 14.9344 3 12.1115C3 9.28857 5.27287 7 8.07663 7ZM16.1836 7.29942C17.5855 7.29942 18.722 9.45363 18.722 12.1115H18.7221C18.7221 14.7686 17.5857 16.9235 16.1838 16.9235C14.7819 16.9235 13.6455 14.7686 13.6455 12.1115C13.6455 9.45432 14.7818 7.29942 16.1836 7.29942ZM20.1073 7.80063C20.6002 7.80063 21 9.73062 21 12.1115C21 14.4916 20.6004 16.4223 20.1073 16.4223C19.6142 16.4223 19.2147 14.4921 19.2147 12.1115C19.2147 9.7308 19.6143 7.80063 20.1073 7.80063Z" fill="#F5F5F5"/>
</svg>
